<svg id="Layer_6" data-name="Layer 6" xmlns="http://www.w3.org/2000/svg" viewBox="0 0 741.58 538.25"><defs><style>.cls-1,.cls-2{fill:#ffefbe}.cls-1{opacity:.2}.cls-3{fill:#e2eaf0}.cls-4{fill:#3d4349}.cls-5{fill:#fff}.cls-6{fill:#afbdc6}.cls-7{fill:#e4e7e9}.cls-8{fill:#cecfd2}.cls-9{fill:#e5e9eb}.cls-10{fill:#3c4249}.cls-11{fill:#679eba}.cls-12{fill:#4f98cf}.cls-13{fill:#9a989d}.cls-14{fill:#fbe4d7}.cls-15{fill:#edd4c7}.cls-16{fill:#86bee0}.cls-17{fill:#d5b7a6}.cls-18{fill:#c39a6f}.cls-19{fill:#e4c1a0}.cls-20{fill:#e1e8ee}</style></defs><title>Artboard 1 copy 5</title><path class="cls-1" d="M153.65 83.41c-.22.18-.51.44-.8.72L153 84z"/><path class="cls-2" d="M400.33 356.24c-8-15.36-19.55-26.78-33-37.41a194.09 194.09 0 0 1-15.42-13.07c-.36-.35-.83-1-1.29-1.39-.63-.75-1.25-1.5-1.84-2.29-.88-1.18-1.61-2.5-2.5-3.67-.13-.26-.26-.52-.37-.77a40.73 40.73 0 0 0-1.27-4.06c-.07-.41-.14-.83-.18-1.24s-.05-1.14-.08-1.72c.29-1.62.41-4.78.54-5.46S346 281.31 346 281c.37-.95.79-2 .93-2.32 1.47-3.45 3.17-8 5.68-10.81-.14.15-2.39 3.39-.71 1.19.58-.76 1.1-1.59 1.66-2.37 1.31-1.83 2.68-3.63 4.06-5.41 2.58-3.31 5.25-6.55 7.93-9.79 5.07-6.15 10.12-12.31 14.58-18.92 10.36-15.34 18.78-31.72 22.27-50.08 3.19-16.77 2-35.3-4.52-51.18-7.65-18.58-21.15-31.3-38.05-41.54-14.47-8.77-30.06-15.85-45.09-23.57l-24.12-12.4c-3.68-1.89-7.35-3.93-11.05-5.88-3-2-6-4-9.09-5.86a84.62 84.62 0 0 0-10.16-5.29c-1.71-.74-3.45-1.38-5.21-2-1.59-.54-3.23-1-4.82-1.52-.87-.38-4.15-1.68-4.85-1.83-17.35-3.63-36.24 2.64-50.48 12.33-11.8 8-21.55 19-31.26 29.33-2.15 2.3-4.32 4.59-6.53 6.84q-1.64 1.66-3.32 3.29l-.19.18c.46-.39.55-.41-.64.58L153 84l-.39.37.28-.28c-4.93 4.11-9.91 8.12-15.05 12-11.53 8.61-23 17-33.46 26.94a88.38 88.38 0 0 0-24.09 39.54c-9.92 34 7.91 67.07 16.91 99 .51 1.82.95 3.66 1.45 5.48-1-3.8 0-.1.31 1.61.74 4 1.23 8 1.57 12q.47 5.59.47 11.2c0 .59-.09 3.24-.09 4.05v.4c-.11 1.24-.21 2.48-.34 3.72a141.79 141.79 0 0 1-4.71 23.81l-.22.81c-.09.21-.2.51-.37.95-.65 1.75-1.3 3.51-2 5.24-1.52 3.74-3.24 7.39-5.07 11-7.91 15.55-17 32.4-14.13 50.51 2.94 18.59 15.69 33.88 30 45.46 25.37 20.57 59.35 28 89.31 12.88 11.8-6 22.26-13.43 32.66-21.51 4.64-3.61 9.27-7.23 14.07-10.64 2.25-1.6 4.54-3.16 6.88-4.63 1.15-.73 2.33-1.41 3.5-2.12l.4-.24c2.38-1.08 4.73-2.18 7.2-3.05 1.21-.43 2.45-.76 3.67-1.17h.12c1.11-.14 8.63-1.55 9.15-.63.16.28-4.31-.6-1.54 0 .83.19 1.76.22 2.6.36 2 .33 4 .78 6 1.31l.85.2.38.17c1.62.72 3.33 1.28 5 2 3.6 1.52 7.12 3.22 10.62 5 6.76 3.35 13.42 6.9 20.36 9.86a92.66 92.66 0 0 0 32.6 7.37 55 55 0 0 1 13.2-1.07 116.39 116.39 0 0 0 10.8-4.61 237.91 237.91 0 0 0 26-16.11c.47-.66.93-1.32 1.37-2 10.05-16.02 9.73-36.26 1.06-52.94z"/><path class="cls-1" d="M311.83 326.85c.15.24.36.57.59.9l-.07-.12z"/><path class="cls-2" d="M618.62 124c-16.38 5.57-29.41 15.31-41.94 27a194.09 194.09 0 0 1-15.24 13.28c-.4.31-1.09.67-1.57 1.06-.84.51-1.67 1-2.54 1.47-1.3.7-2.72 1.21-4 1.92-.28.09-.55.18-.82.25a40.73 40.73 0 0 0-4.21.64h-1.25c-.41 0-1.14-.12-1.71-.18-1.55-.53-4.66-1.12-5.31-1.36s-3.65-1.63-3.93-1.66l-2.1-1.29c-3.18-2-7.41-4.33-9.83-7.24.13.16 3 2.87 1.07.88-.67-.69-1.41-1.33-2.1-2a154.23 154.23 0 0 1-4.74-4.83c-2.89-3-5.69-6.18-8.49-9.31-5.32-5.94-10.65-11.85-16.52-17.26-13.61-12.55-28.54-23.33-46.17-29.54-16.1-5.68-34.6-7.3-51.27-3.22-19.52 4.77-34.12 16.2-46.79 31.38-10.83 13-20.21 27.33-30.11 41l-15.88 22c-2.42 3.36-5 6.68-7.48 10-2.45 2.64-4.85 5.32-7.16 8.1a84.62 84.62 0 0 0-6.75 9.25c-1 1.58-1.88 3.2-2.74 4.85-.77 1.49-1.45 3-2.22 4.54-.5.81-2.29 3.85-2.54 4.52-6.2 16.61-2.84 36.22 4.61 51.76 6.17 12.88 15.51 24.16 24.3 35.31 1.95 2.48 3.89 5 5.78 7.48q1.4 1.87 2.75 3.77l.15.22c-.31-.52-.33-.61.48.72v.06l.31.45-.23-.32c3.32 5.49 6.54 11 9.56 16.68 6.78 12.7 13.34 25.32 21.61 37.13a88.38 88.38 0 0 0 35.47 29.76c32.1 14.91 67.5 2.26 100.43-1.84 1.88-.23 3.76-.39 5.63-.61-3.92.46-.1 0 1.63-.06 4-.13 8.11 0 12.14.26q5.6.37 11.14 1.22c.58.09 3.19.57 4 .7l.39.09c1.21.3 2.42.58 3.63.9a141.79 141.79 0 0 1 22.83 8.23l.77.34.88.5c1.63.91 3.27 1.81 4.88 2.76 3.47 2.07 6.82 4.32 10.1 6.67 14.18 10.16 29.48 21.67 47.82 21.56 18.82-.11 35.85-10.42 49.44-22.8 24.15-22 36.6-54.47 26.15-86.36-4.11-12.56-9.93-24-16.36-35.52-2.87-5.13-5.76-10.26-8.41-15.51-1.24-2.47-2.44-5-3.55-7.5-.54-1.25-1-2.52-1.57-3.78l-.18-.43c-.71-2.51-1.44-5-1.93-7.58-.24-1.26-.39-2.53-.6-3.8v-.12c0-1.12-.24-8.76.75-9.14.3-.11-1.24 4.17-.19 1.53.32-.8.48-1.7.74-2.52a61.8 61.8 0 0 1 2.19-5.72c.11-.25.22-.53.33-.81l.23-.35c1-1.49 1.76-3.1 2.69-4.61 2-3.33 4.25-6.55 6.49-9.75 4.33-6.18 8.84-12.24 12.81-18.65a92.66 92.66 0 0 0 12.19-31.12 55 55 0 0 1 .92-13.21 116.39 116.39 0 0 0-2.93-11.37 237.91 237.91 0 0 0-12-28.09c-.58-.56-1.16-1.12-1.78-1.66-14.29-12.5-34.36-15.2-52.15-9.12z"/><path class="cls-3" d="M527.16 370.09a2.5 2.5 0 0 1-.24-5c1.22-.12 120.54-12.2 129.51-65.12q-1.59.52-3.2.95c-15.57 4.15-28.9.68-32.41-8.45-3.33-8.65-.7-18.21 6.86-25 7.1-6.32 16.51-8.14 23.43-4.52 10 5.22 11.55 18.74 11.08 29.32 27.29-12.91 48.53-47.56 40-102.4a2.5 2.5 0 1 1 4.94-.76c4.84 31.3.69 58.74-12 79.33-8.21 13.43-20.13 23.83-33.37 29.56q-.05.47-.11.92c-3 24.7-26.7 44.2-70.35 58a355.53 355.53 0 0 1-63.89 13.23zm116.12-103.93a18.94 18.94 0 0 0-12.28 5.11c-4.68 4.17-8.59 11.46-5.52 19.42 2.52 6.55 13.64 8.82 26.45 5.41q2.58-.69 5.12-1.62c1.52-18.84-4.42-25-8.27-27a11.82 11.82 0 0 0-5.5-1.32zm32.3-128.34l64.5-16-14.38 32.8-18.75-6.46-6.87 17.16-7.5-21.75-17-5.75z"/><path class="cls-4" d="M700.08 166.82a1.5 1.5 0 0 1-1.38-1l-7.26-21.05-16.3-5.51a1.5 1.5 0 0 1 .12-2.88l64.5-16a1.5 1.5 0 0 1 1.74 2.06l-14.37 32.79a1.5 1.5 0 0 1-1.86.82l-17.4-6-6.34 15.84a1.5 1.5 0 0 1-1.45.93zM680.91 138l12.14 4.11a1.5 1.5 0 0 1 .94.93l6.19 17.96 5.38-13.42a1.5 1.5 0 0 1 1.88-.86l17.44 6 12.6-28.72z"/><path class="cls-5" d="M740.08 121.82l-47.5 21.75-17-5.75 64.5-16-33.13 26.34 18.75 6.46 14.38-32.8z"/><path class="cls-4" d="M725.7 156.12a1.49 1.49 0 0 1-.49-.08l-18.75-6.46A1.5 1.5 0 0 1 706 147l23.48-18.67-36.3 16.62a1.51 1.51 0 0 1-1.1.06l-17-5.75a1.5 1.5 0 0 1 .12-2.88l64.49-16h.18a1.5 1.5 0 0 1 .66.06 1.52 1.52 0 0 1 .39.2 1.49 1.49 0 0 1 .39.4 1.55 1.55 0 0 1 .14.28 1.5 1.5 0 0 1 0 1l-.05.14-14.37 32.78a1.5 1.5 0 0 1-1.33.88zm-15.7-8.49l14.86 5.12 11.39-26zM680.91 138l11.58 4 32.36-14.82z"/><path class="cls-6" d="M700.08 165.32l16.44-13.86-9.57-3.3-6.87 17.16z"/><path class="cls-4" d="M700.07 166.82a1.5 1.5 0 0 1-1.39-2.06l6.88-17.16a1.5 1.5 0 0 1 1.88-.86L717 150a1.5 1.5 0 0 1 .48 2.56L701 166.47a1.49 1.49 0 0 1-.93.35zm7.74-16.82l-4.11 10.3 9.83-8.29z"/><path class="cls-3" d="M268.35 1.5l66.3 4.55-23.74 26.81-15.87-11.9-11.8 14.23-.47-23L268.35 1.5z"/><path class="cls-4" d="M283.23 36.69a1.5 1.5 0 0 1-1.5-1.47L281.28 13 267.46 2.71a1.5 1.5 0 0 1 1-2.7l66.3 4.55a1.5 1.5 0 0 1 1 2.49L312 33.85a1.5 1.5 0 0 1-2 .21L295.28 23l-10.89 13.15a1.5 1.5 0 0 1-1.16.54zm-9.87-33.34l10.3 7.65a1.5 1.5 0 0 1 .61 1.17l.39 19L293.89 20a1.5 1.5 0 0 1 2.05-.24l14.76 11.07 20.8-23.49z"/><path class="cls-5" d="M334.65 6.05l-51.88 6.14L268.35 1.5l66.3 4.55-39.61 14.91 15.87 11.9 23.74-26.81z"/><path class="cls-4" d="M310.91 34.36a1.5 1.5 0 0 1-.9-.3l-15.87-11.9a1.5 1.5 0 0 1 .37-2.6L322.59 9l-39.65 4.69a1.5 1.5 0 0 1-1.07-.28l-14.41-10.7a1.5 1.5 0 0 1 1-2.7l66.28 4.55h.2a1.5 1.5 0 0 1 1.16 1.08 1.51 1.51 0 0 1 0 .29 1.5 1.5 0 0 1-.29 1l-.09.11L312 33.85a1.5 1.5 0 0 1-1.09.51zm-12.78-13l12.57 9.42 18.81-21.19zM273.36 3.35l9.82 7.28 35.34-4.18z"/><path class="cls-6" d="M283.24 35.19l19.9-8.15-8.1-6.08-11.8 14.23z"/><path class="cls-4" d="M283.24 36.69a1.5 1.5 0 0 1-1.15-2.46L293.89 20a1.5 1.5 0 0 1 2.05-.24l8.1 6.07a1.5 1.5 0 0 1-.33 2.59l-19.91 8.16a1.49 1.49 0 0 1-.56.11zm12-13.67l-7.06 8.5 11.9-4.87z"/><path class="cls-3" d="M231.87 315.15a2.5 2.5 0 0 1-2.14-1.2c-.64-1-63.71-103-115.2-87.93a49.06 49.06 0 0 1 10.38 15.5c3.22 8.06 2.65 15.28-1.58 19.81-6.32 6.78-16.07 8.6-25.44 4.75-8.79-3.61-14.55-11.28-14.32-19.08.33-11.25 11.78-18.58 21.5-22.79-11.33-8.68-26.28-13.69-39.45-14.48a2.5 2.5 0 1 1 .3-5c18.76 1.12 33.94 8.28 44.47 17.38l.82-.29c23.53-8.09 51.43 4.65 82.91 37.87A355.61 355.61 0 0 1 234 311.35a2.5 2.5 0 0 1-2.13 3.8zm-122.51-87.32c-17.7 6.9-20.66 15-20.79 19.32-.17 5.73 4.34 11.48 11.22 14.31 5.8 2.38 14.06 2.7 19.88-3.54 2.85-3.06 3.06-8.36.59-14.54a43.68 43.68 0 0 0-10.9-15.55zM66 188.82l-64.5-16 14.38 32.8 18.75-6.46 6.87 17.16 7.5-21.75 17-5.75z"/><path class="cls-4" d="M41.5 217.82a1.5 1.5 0 0 1-1.39-.94L33.76 201l-17.4 6a1.5 1.5 0 0 1-1.86-.82L.13 173.42a1.5 1.5 0 0 1 1.74-2.06l64.5 16a1.5 1.5 0 0 1 .12 2.88l-16.3 5.51-7.26 21.05a1.5 1.5 0 0 1-1.38 1zm-6.87-20.16a1.5 1.5 0 0 1 1.39.94l5.37 13.4 6.19-17.94a1.5 1.5 0 0 1 .94-.93L60.66 189 4.1 175l12.6 28.74 17.44-6a1.5 1.5 0 0 1 .49-.08z"/><path class="cls-5" d="M1.5 172.82L49 194.57l17-5.75-64.5-16 33.13 26.34-18.75 6.46-14.38-32.8z"/><path class="cls-4" d="M15.88 207.11a1.5 1.5 0 0 1-1.37-.9L.13 173.44l-.05-.14a1.5 1.5 0 0 1 0-1 1.5 1.5 0 0 1 1.58-.94h.18l64.49 16a1.5 1.5 0 0 1 .12 2.88l-17 5.75a1.5 1.5 0 0 1-1.1-.06l-36.3-16.62L35.56 198a1.5 1.5 0 0 1-.45 2.59L16.36 207a1.49 1.49 0 0 1-.48.11zM5.3 177.76l11.39 26 14.86-5.12zm11.42.38L49.08 193l11.58-4z"/><path class="cls-6" d="M41.5 216.32l-16.45-13.86 9.58-3.3 6.87 17.16z"/><path class="cls-4" d="M41.5 217.82a1.49 1.49 0 0 1-1-.35L24.09 203.6a1.5 1.5 0 0 1 .48-2.56l9.57-3.29a1.5 1.5 0 0 1 1.88.86l6.88 17.16a1.5 1.5 0 0 1-1.39 2.06zM28 203l9.83 8.29L33.76 201z"/><path class="cls-3" d="M263.63 244.52a2.5 2.5 0 0 1-2.27-1.44c-8-17-8.93-33.77-6-47.37l-.64-.58c-18.34-16.81-20.47-47.41-6.31-90.93a355.54 355.54 0 0 1 26.38-59.7 2.5 2.5 0 0 1 4.33 2.5c-.61 1.06-60 105.14-22.26 143.21a49.08 49.08 0 0 1 8.66-16.52c5.54-6.68 12.16-9.62 18.16-8.07 9 2.32 15.23 10 16.32 20.08 1 9.45-3 18.17-9.93 21.69-10 5.08-22-1.48-30.29-8-2.22 14.1.52 29.63 6.12 41.57a2.5 2.5 0 0 1-2.26 3.56zm-2.71-50.63c10.86 9.16 20.33 12.37 26.9 9 5.12-2.59 8-9.3 7.22-16.69-.67-6.23-4.34-13.64-12.6-15.78-4-1-8.8 1.3-13.06 6.42a43.67 43.67 0 0 0-8.46 17.05zM533.41 75.12l-64.5-16 14.37 32.8 18.75-6.46 6.88 17.16 7.5-21.75 17-5.75z"/><path class="cls-4" d="M508.91 104.12a1.5 1.5 0 0 1-1.39-.94l-6.34-15.83-17.4 6a1.5 1.5 0 0 1-1.86-.82l-14.37-32.8a1.5 1.5 0 0 1 1.74-2.06l64.5 16a1.5 1.5 0 0 1 .12 2.88l-16.3 5.51-7.26 21.05a1.5 1.5 0 0 1-1.38 1zM502 84a1.5 1.5 0 0 1 1.39.94l5.38 13.42L515 80.38a1.5 1.5 0 0 1 .94-.93l12.14-4.11-56.57-14L484.1 90l17.44-6a1.5 1.5 0 0 1 .46 0z"/><path class="cls-5" d="M468.91 59.12l47.5 21.75 17-5.75-64.5-16 33.12 26.34-18.75 6.46-14.37-32.8z"/><path class="cls-4" d="M483.28 93.42a1.5 1.5 0 0 1-1.37-.9l-14.37-32.78-.05-.14a1.5 1.5 0 0 1 0-1 1.54 1.54 0 0 1 .14-.27 1.49 1.49 0 0 1 .38-.4 1.51 1.51 0 0 1 .4-.2 1.49 1.49 0 0 1 .66-.06h.18l64.49 16a1.5 1.5 0 0 1 .12 2.88l-17 5.75a1.5 1.5 0 0 1-1.1-.06l-36.3-16.62L503 84.29a1.5 1.5 0 0 1-.45 2.59l-18.75 6.46a1.49 1.49 0 0 1-.52.08zm-10.57-29.36L484.1 90l14.9-5.07zm11.42.38l32.36 14.82 11.58-3.92z"/><path class="cls-6" d="M508.91 102.62l-16.45-13.86 9.57-3.3 6.88 17.16z"/><path class="cls-4" d="M508.91 104.12a1.49 1.49 0 0 1-1-.35L491.49 89.9a1.5 1.5 0 0 1 .48-2.56l9.57-3.34a1.5 1.5 0 0 1 1.88.86l6.88 17.16a1.5 1.5 0 0 1-1.39 2.06zm-13.46-14.81l9.83 8.29-4.11-10.26z"/><path class="cls-3" d="M464.14 308a2.5 2.5 0 0 1-1.83-4.2c9-9.66 16.36-23.6 18.57-37.7-9.94 3.65-23.29 6.25-31.29-1.67-5.55-5.49-6.67-15-2.8-23.69 4.13-9.25 12.43-14.66 21.69-14.11 6.18.37 11.58 5.2 14.81 13.25a49.07 49.07 0 0 1 3.18 18.38c47.66-24.66 23-141.94 22.73-143.13a2.5 2.5 0 0 1 4.89-1.05 355.52 355.52 0 0 1 6.77 64.92c.13 45.77-11.27 74.24-33.89 84.62l-.79.36c-1.35 13.85-7.4 29.5-20.21 43.26a2.49 2.49 0 0 1-1.83.76zm3-76.4c-8 0-13.38 5.69-15.83 11.18-3 6.79-2.33 14.07 1.75 18.1 3.09 3.06 10.81 6.86 28.37-.36a43.69 43.69 0 0 0-2.83-18.78c-2.48-6.18-6.29-9.87-10.46-10.12q-.46-.02-.96-.02z"/><g id="_Group_" data-name="&lt;Group&gt;"><rect class="cls-7" x="183.68" y="143.19" width="409.83" height="258.35" rx="20.49" ry="20.49"/><path class="cls-8" d="M593.51 357.14V381A20.55 20.55 0 0 1 573 401.54H204.17A20.55 20.55 0 0 1 183.68 381v-23.86z"/><path class="cls-9" d="M183.68 206.37v-42.69a20.55 20.55 0 0 1 20.49-20.49H573a20.55 20.55 0 0 1 20.49 20.49V381A20.55 20.55 0 0 1 573 401.54H204.17A20.55 20.55 0 0 1 183.68 381v-82.41"/><path class="cls-10" d="M573 404H204.17a23 23 0 0 1-23-23v-82.41a2.5 2.5 0 0 1 5 0V381a18 18 0 0 0 18 18H573a18 18 0 0 0 18-18V163.68a18 18 0 0 0-18-18H204.17a18 18 0 0 0-18 18v42.69a2.5 2.5 0 0 1-5 0v-42.69a23 23 0 0 1 23-23H573a23 23 0 0 1 23 23V381a23 23 0 0 1-23 23z"/><path class="cls-10" d="M183.68 274.86a2.5 2.5 0 0 1-2.5-2.5v-43.11a2.5 2.5 0 0 1 5 0v43.11a2.5 2.5 0 0 1-2.5 2.5z"/></g><rect class="cls-5" x="201.51" y="164.92" width="371" height="212" rx="7.02" ry="7.02"/><path class="cls-11" d="M307.18 374.92L274.63 443a28.45 28.45 0 0 0 11.65 37l32.23 18.25z"/><path class="cls-4" d="M318.51 500.75a2.5 2.5 0 0 1-1.23-.32L285 482.18a31 31 0 0 1-12.67-40.28l32.55-68.05a2.5 2.5 0 0 1 4.75.85L321 498a2.5 2.5 0 0 1-2.49 2.73zm-13-116.57l-28.63 59.87a26 26 0 0 0 10.62 33.77l28.08 15.9z"/><path class="cls-11" d="M469.18 374.92L501.72 443a28.45 28.45 0 0 1-11.65 37l-32.23 18.25z"/><path class="cls-4" d="M457.84 500.75a2.5 2.5 0 0 1-2.49-2.73l11.33-123.33a2.5 2.5 0 0 1 4.75-.85L504 441.89a31 31 0 0 1-12.67 40.28l-32.23 18.25a2.5 2.5 0 0 1-1.26.33zm13-116.57l-10.07 109.54 28.08-15.9a26 26 0 0 0 10.62-33.77z"/><rect class="cls-9" x="316.51" y="247.92" width="240.19" height="93.68" rx="3.08" ry="3.08"/><rect class="cls-9" x="435.27" y="197.68" width="62.48" height="13.15" rx="3.08" ry="3.08"/><rect class="cls-12" x="516.6" y="197.68" width="41.25" height="11.84" rx="3.08" ry="3.08"/><path class="cls-13" d="M316 202.74l.26-.09.22-.05h.64a3.08 3.08 0 0 1 1.1.22 3.47 3.47 0 0 1 .79.43.67.67 0 0 0 .92-.06 5.73 5.73 0 0 0 1-1.15.41.41 0 0 0-.1-.49l-.28-.27-.22-.18a5.51 5.51 0 0 0-4-.95h-.16a5.57 5.57 0 0 0-.58 10.84 5.55 5.55 0 0 0 4.77-.79l.22-.18.28-.27a.41.41 0 0 0 .1-.49 5.73 5.73 0 0 0-1-1.15.67.67 0 0 0-.92-.06 3.47 3.47 0 0 1-.79.43 3.06 3.06 0 0 1-2.27 0 3.06 3.06 0 0 1 0-5.69zm-38.16 0l.26-.09.22-.05h.68a3.08 3.08 0 0 1 1.1.22 3.47 3.47 0 0 1 .79.43.67.67 0 0 0 .92-.06 5.73 5.73 0 0 0 1-1.15.41.41 0 0 0-.1-.49l-.28-.27-.22-.18a5.51 5.51 0 0 0-4-.95h-.16a5.57 5.57 0 0 0-.58 10.84 5.55 5.55 0 0 0 4.77-.79l.22-.18.28-.27a.41.41 0 0 0 .1-.49 5.73 5.73 0 0 0-1-1.15.67.67 0 0 0-.92-.06 3.47 3.47 0 0 1-.79.43 3.06 3.06 0 0 1-2.27 0 3.06 3.06 0 0 1 0-5.69zm32.38 6.48a3.09 3.09 0 0 1-.64-.59 1.26 1.26 0 0 0-.1-.16 3 3 0 0 1-.56-1.74V205.6a5.58 5.58 0 1 0-1.8 4.1l.09-.08a5.62 5.62 0 0 0 1.07 1.28.68.68 0 0 0 .87 0l1.09-.86a.52.52 0 0 0-.02-.82zm-6.88-.58a3.05 3.05 0 1 1 3.05-3.05 3.06 3.06 0 0 1-3.05 3.05zm31.27.6v-3.08a5.57 5.57 0 0 0-8.61-4.66v-3.01a.48.48 0 0 0-.48-.48h-1.56a.48.48 0 0 0-.48.47v11.14a1.27 1.27 0 0 0 0 .13v1a.48.48 0 0 0 .48.48h1.56a.48.48 0 0 0 .48-.47v-4.58a3.05 3.05 0 1 1 6.11 0v4.52a.48.48 0 0 0 .48.48h1.56a.48.48 0 0 0 .48-.47v-1.5zM290.46 200a5.54 5.54 0 0 1 3 .95 5.52 5.52 0 0 0-3-.95z"/><path class="cls-13" d="M284.82 205.56a5.55 5.55 0 1 0 5.65-5.54h-.1a5.55 5.55 0 0 0-5.55 5.54zm8.6 0a3.05 3.05 0 1 1-3.05-3.05 3.06 3.06 0 0 1 3.04 3.08z"/><path class="cls-12" d="M261.78 197.57a8.47 8.47 0 0 0-6-6 35.36 35.36 0 0 0-17.43 0 8.59 8.59 0 0 0-6.17 6.17 35.36 35.36 0 0 0 0 17.43 8.47 8.47 0 0 0 6 6 35.35 35.35 0 0 0 17.53 0 8.47 8.47 0 0 0 6-6 35.35 35.35 0 0 0 0-17.53zm-15.36 10.8h.09a2.2 2.2 0 0 0 1.66 0 2.89 2.89 0 0 0 .71-.39 3.1 3.1 0 0 1 4.16.42l.47.5a6.11 6.11 0 0 1 1.27 1.67l.06.13a2.72 2.72 0 0 1 .22 1.07 2.76 2.76 0 0 1-.86 2c-.19.2-.35.34-.46.44a5.38 5.38 0 0 1-.52.42 10 10 0 0 1-5.82 1.86 10.42 10.42 0 0 1-2.88-.41l-.85-.24v-.06a10.26 10.26 0 0 1-4.38-3.3 10.13 10.13 0 0 1 .33-12.72 10.17 10.17 0 0 1 6-3.43h.24a10 10 0 0 1 7.35 1.74 5.37 5.37 0 0 1 .52.42c.11.1.27.24.46.44a2.76 2.76 0 0 1 .86 2 2.73 2.73 0 0 1-.22 1.07l-.06.13a6.11 6.11 0 0 1-1.27 1.67l-.47.5a3.1 3.1 0 0 1-4.16.42 2.89 2.89 0 0 0-.71-.39 2.25 2.25 0 0 0-.77-.16h-.73l-.17.06a2.21 2.21 0 0 0-.1 4.09z"/><path class="cls-14" d="M476.27 403l-16.43 111.5h-148L298.94 403a55.1 55.1 0 0 1 54.94-55h7.84a7.72 7.72 0 0 0 7.72-7.72v-27.57h35.33v27.61a7.72 7.72 0 0 0 7.73 7.68h8.83a55.1 55.1 0 0 1 54.94 55z"/><path class="cls-15" d="M421.33 349H421v1.53a33.4 33.4 0 0 1-66.81 0V349h-.37a55.1 55.1 0 0 0-54.88 55l12.9 111.52h148L476.27 404a55.1 55.1 0 0 0-54.94-55z"/><path class="cls-10" d="M459.84 517h-148a2.5 2.5 0 0 1-2.48-2.21l-12.9-111.52a2.45 2.45 0 0 1 0-.29 57.51 57.51 0 0 1 57.44-57.44h7.84a5.23 5.23 0 0 0 5.22-5.22v-27.61a2.5 2.5 0 0 1 2.5-2.5h35.33a2.5 2.5 0 0 1 2.5 2.5v27.61a5.23 5.23 0 0 0 5.23 5.22h8.83A57.51 57.51 0 0 1 478.77 403a2.45 2.45 0 0 1 0 .36l-16.45 111.51a2.5 2.5 0 0 1-2.48 2.13zm-145.77-5h143.62l16.08-109.2a52.5 52.5 0 0 0-52.44-52.26h-8.83a10.24 10.24 0 0 1-10.23-10.22v-25.11h-30.33v25.11a10.23 10.23 0 0 1-10.22 10.22h-7.84a52.5 52.5 0 0 0-52.44 52.3zm162.2-109z"/><path class="cls-16" d="M476.27 403l-16.43 111.5h-148L298.94 403a55.13 55.13 0 0 1 46-54.19c16.77-.75 19.24-1.54 42.66-1.54s28.9.33 42.65 1.54A55.13 55.13 0 0 1 476.27 403z"/><g id="_Group_2" data-name="&lt;Group&gt;"><path class="cls-14" d="M459.19 209.1V252a64.88 64.88 0 0 1-64.69 64.69h-15.12A64.88 64.88 0 0 1 314.69 252v-44.29c0-6.06 3.06-16.92 7.63-26.28s10.68-17.2 16.68-17.2c0 0 24.83 9.7 50.75 9.7 24.25 0 49.71-9.7 49.71-9.7 12.14 0 19.73 32.77 19.73 44.87z"/><path class="cls-17" d="M459.19 216.92c5.65 46.33-20.67 72-70.68 72-44 0-79.67-26.33-73.82-60zm0-15.79l-16.56-21.54a14.56 14.56 0 0 0-13.82-5.5l-22.3 6.22a40 40 0 0 1-5.51 1.16 105.53 105.53 0 0 1-26.92.08 44.78 44.78 0 0 1-6.88-1.42l-21-6.08a14.56 14.56 0 0 0-13.34 4.8l-18.2 20.89c0-6.06 5.08-12.8 9.65-22.16S333 164.23 339 164.23c0 0 24.83 9.7 50.75 9.7 24.25 0 51.66-10.47 51.66-10.47 12.14 0 17.78 25.54 17.78 37.67z"/><path class="cls-10" d="M394.5 319.21h-15.12A67.27 67.27 0 0 1 312.19 252v-44.29c0-6.61 3.24-17.87 7.88-27.38 3.39-6.95 10.37-18.6 19-18.6a2.52 2.52 0 0 1 .91.17c.24.1 24.72 9.53 49.84 9.53 23.52 0 48.57-9.44 48.82-9.54a2.5 2.5 0 0 1 .89-.16c14.57 0 22.2 35.2 22.2 47.37V252a67.27 67.27 0 0 1-67.23 67.21zm-55.88-152.46c-4.16.37-9.38 6.21-14.05 15.78-4.27 8.75-7.38 19.35-7.38 25.18V252a62.26 62.26 0 0 0 62.19 62.19h15.12A62.26 62.26 0 0 0 456.69 252v-42.9c0-13.39-7.9-41.52-16.8-42.35-3.77 1.39-27.24 9.68-50.11 9.68-24.39 0-47.42-8.27-51.16-9.68z"/></g><path class="cls-10" d="M459.84 517h-148a2.5 2.5 0 0 1-2.48-2.21l-12.9-111.52a2.45 2.45 0 0 1 0-.29 57.63 57.63 0 0 1 48.1-56.66h.16c.19 0 19.63-1.88 42.9-1.88s42.7 1.86 42.89 1.88h.16a57.63 57.63 0 0 1 48.1 56.68 2.45 2.45 0 0 1 0 .36l-16.45 111.51a2.5 2.5 0 0 1-2.48 2.13zm-145.77-5h143.62l16.08-109.2a52.91 52.91 0 0 0-43.83-51.53c-1.39-.13-20.08-1.85-42.33-1.85s-40.95 1.72-42.34 1.85a52.91 52.91 0 0 0-43.83 51.57z"/><path class="cls-18" d="M456 144.07c-5.75-7.41-11-9.36-16.43-12.33-15-8.29-23-25.27-38.56-26.93-23.45-2.51-28.32 15-59.59 29.51-19.52 9-20.57 10.29-27.42 17.28-20.7 21.15.08 77.31.08 77.31s3.42 51 72.42 51c75 0 71.41-51 71.41-51 1.83.42 15.55-62.37-1.91-84.84z"/><path class="cls-10" d="M386.51 282c-20.15 0-47.57-4.57-63.75-26.34A55.4 55.4 0 0 1 312 229.37c-1.74-4.79-20.36-57.91.48-79.22l.32-.33c6.75-6.9 8.15-8.33 27.71-17.39 12.43-5.75 20.46-11.88 27.55-17.29 10.24-7.81 18.34-14 33.13-12.4 9.92 1.06 16.73 7.68 23.94 14.68 4.68 4.55 9.52 9.25 15.4 12.49.83.46 1.66.89 2.49 1.32 4.65 2.43 9.46 4.95 14.59 11.55 17 21.83 5.71 80.78 2.38 86.85a47.31 47.31 0 0 1-12.78 32c-12.53 13.53-32.97 20.37-60.7 20.37zm10.13-175.35c-10.54 0-16.9 4.85-26 11.8-6.9 5.26-15.49 11.82-28.32 17.76-18.86 8.74-20 9.92-26.48 16.52l-.32.33c-19.55 20 .34 74.58.54 75.13a2.08 2.08 0 0 1 .12.58 51.65 51.65 0 0 0 10.05 24.57c12.18 16.25 32.47 24.49 60.29 24.49 26.49 0 45.88-6.37 57.64-18.94a43.49 43.49 0 0 0 11.69-29.83 2.08 2.08 0 0 1 .68-1.68c1.12-2.49 4.57-17.16 5.77-34.76 1.05-15.55.54-36.38-7.92-47.27-4.57-5.89-8.78-8.09-13.23-10.42-.85-.45-1.71-.89-2.57-1.37-6.37-3.51-11.41-8.41-16.29-13.15-6.68-6.49-13-12.62-21.48-13.53a38.94 38.94 0 0 0-4.17-.23zm61.73 120.24z"/><path class="cls-19" d="M355.31 150.65a2.08 2.08 0 0 1-.71-4c.21-.08 18.78-7 34-28.55a2.08 2.08 0 0 1 3.4 2.4c-16 22.65-35.17 29.77-36 30.06a2.07 2.07 0 0 1-.69.09zm18.47 0a2.08 2.08 0 0 1-1.31-3.69c.1-.08 10.47-8.54 15.28-13.67a2.08 2.08 0 0 1 3 2.85c-5 5.33-15.25 13.69-15.69 14a2.07 2.07 0 0 1-1.28.51zm21.15-16.99a2.08 2.08 0 0 1-1.35-3.66 26.57 26.57 0 0 0 6.74-11.37 2.08 2.08 0 0 1 4 1.26c-2.8 8.79-7.8 13.09-8 13.27a2.07 2.07 0 0 1-1.39.5zm-5.5 16.99a2.08 2.08 0 0 1-.93-3.94c.13-.07 13.17-6.72 17.06-18.51a2.08 2.08 0 1 1 4 1.3c-4.49 13.5-18.56 20.63-19.2 20.93a2.08 2.08 0 0 1-.93.22zm-67.06 9.1a2.08 2.08 0 0 1-1.55-3.46 35.48 35.48 0 0 1 6.83-6 2.08 2.08 0 1 1 2.3 3.46 31.3 31.3 0 0 0-6 5.27 2.08 2.08 0 0 1-1.58.73zm120.06-11.66a2.07 2.07 0 0 1-1.47-.6 31.31 31.31 0 0 0-6.34-4.89 2.08 2.08 0 1 1 2.09-3.6 35.51 35.51 0 0 1 7.18 5.53 2.08 2.08 0 0 1-1.47 3.56zm9.84 29.67a2.08 2.08 0 0 1-2-2.1c0-.08 0-5.69-4-14.58a2.08 2.08 0 1 1 3.79-1.72c4.46 9.84 4.42 16.09 4.42 16.35a2.08 2.08 0 0 1-2.21 2.05z"/><path class="cls-20" d="M732.78 508.89c-1.67-.83-4.78-2.51-7.78-2.87-2.51-.3-4.92-.32-7.43-.38-3.09-.08-6.59-.3-10.05-.62-8.46-.78-16.72-2.61-25.12-3.76a198.8 198.8 0 0 0-27.18-1.74 17 17 0 0 0-8.69-8.18c-5.08-4.39-11-4.42-17.87-2.93q-1.34.29-2.66.62c-9 1.1-17.95 3.51-26.84 5.08-10.45 1.84-21 3.24-31.54 4.47-10.12 1.19-21.24.71-31.19 3.22-25.7-3.42-51.7-4-77.67-4.65-33.49-.78-67.26.7-100.68 2.7s-66.89 5.32-100.34 8.17c-16.37 1.4-32.87 2.45-49.31 1.69-16.21-.75-32.06-4.38-48.2-5.72-18.31-1.52-36 1.33-53.94 4.61-8.4 1.53-16.82 3-25.33 3.71-8.94.79-17.9.46-26.85 1.14-10.42.79-13.58 16.23-3.66 20.44 15.22 6.47 32.15 4.43 48.13 2.17 15.69-2.22 31.44-5.16 47.34-5.17 15.29 0 30.49 3.8 45.68 5.48 17.21 1.91 34.61 1.92 51.89 1.11 33.85-1.6 67.56-5.34 101.42-7q50.28-2.49 100.66-3.35c24.67-.42 49.54-.65 74.23-2.36.49.36 1 .72 1.48 1.05a57.33 57.33 0 0 0 17.39 7.59c12.39 3.25 25.55 2.59 37.93-.19a188.48 188.48 0 0 0 27.64-8.92 197.19 197.19 0 0 1 26.67-3.19 120.79 120.79 0 0 1 24.56 1.33c8.73 1.5 17.15 4.09 25.75 6.11s17.05 4.26 25.75 5.11a63 63 0 0 0 14.91 0 31.65 31.65 0 0 0 7.18-1.59c3.31-1.33 5.05-3.71 7.48-6 5.36-5.07 2.04-14.28-3.76-17.18z"/><path class="cls-10" d="M268.94 518h-171a2.5 2.5 0 0 1 0-5h171a2.5 2.5 0 1 1 0 5zm450 0h-41a2.5 2.5 0 0 1 0-5h41a2.5 2.5 0 0 1 0 5zm-389 0h-31a2.5 2.5 0 0 1 0-5h31a2.5 2.5 0 1 1 0 5zm283 0h-259a2.5 2.5 0 0 1 0-5h259a2.5 2.5 0 0 1 0 5z"/><rect class="cls-9" x="232.51" y="247.92" width="62.48" height="13.15" rx="3.08" ry="3.08"/><path class="cls-10" d="M291.91 263.19h-56.32a5.21 5.21 0 0 1-5.2-5.2v-7a5.21 5.21 0 0 1 5.2-5.2h56.32a5.21 5.21 0 0 1 5.2 5.2v7a5.21 5.21 0 0 1-5.2 5.2zM235.59 250a1 1 0 0 0-1 1v7a1 1 0 0 0 1 1h56.32a1 1 0 0 0 1-1v-7a1 1 0 0 0-1-1z"/><rect class="cls-9" x="232.51" y="274.81" width="62.48" height="13.15" rx="3.08" ry="3.08"/><rect class="cls-9" x="232.51" y="301.7" width="62.48" height="13.15" rx="3.08" ry="3.08"/><rect class="cls-9" x="232.51" y="328.59" width="62.48" height="13.15" rx="3.08" ry="3.08"/><path class="cls-19" d="M342 248a2.08 2.08 0 0 1-1.74-.94A86.4 86.4 0 0 1 330 224.5a2.08 2.08 0 0 1 4-1.19 82.23 82.23 0 0 0 9.81 21.47A2.08 2.08 0 0 1 342 248zm8.87-15a2.08 2.08 0 0 1-1.85-1.13 86.34 86.34 0 0 1-8-23.48 2.08 2.08 0 0 1 4.09-.78 82.2 82.2 0 0 0 7.59 22.35 2.08 2.08 0 0 1-1.85 3zm-21.11-15.84a2.08 2.08 0 0 1-2-1.68 85.24 85.24 0 0 1-1.79-18.14 2.08 2.08 0 0 1 4.16.16 82.81 82.81 0 0 0 1.72 17.18 2.08 2.08 0 0 1-1.64 2.44 2.13 2.13 0 0 1-.45.04zM437.33 248a2.08 2.08 0 0 1-1.74-3.22 82.23 82.23 0 0 0 9.81-21.47 2.08 2.08 0 0 1 4 1.19 86.4 86.4 0 0 1-10.32 22.55 2.08 2.08 0 0 1-1.75.95z"/><path class="cls-14" d="M371.95 297.92h30.31v41h-30.31z"/><path class="cls-5" d="M461.18 407a2.08 2.08 0 0 1-2.05-1.75 40.35 40.35 0 0 0-5.27-14.84 2.08 2.08 0 1 1 3.54-2.19 44.48 44.48 0 0 1 5.84 16.37 2.08 2.08 0 0 1-1.72 2.39zm-12.5-23.58a2.07 2.07 0 0 1-1.31-.47 23.81 23.81 0 0 0-8.64-4.67 2.08 2.08 0 0 1 .91-4.06 27.46 27.46 0 0 1 10.36 5.5 2.08 2.08 0 0 1-1.32 3.69zM218.08 95.45a11.25 11.25 0 1 1 4-15.4 11.26 11.26 0 0 1-4 15.4zm-8.35-14.23a5.25 5.25 0 1 0 7.18 1.87 5.26 5.26 0 0 0-7.18-1.87zM648.2 398.64a11.25 11.25 0 1 1 4-15.4 11.26 11.26 0 0 1-4 15.4zm-8.35-14.23a5.25 5.25 0 1 0 7.18 1.87 5.26 5.26 0 0 0-7.17-1.88zm-503.77-14.96a11.25 11.25 0 1 1 4-15.4 11.26 11.26 0 0 1-4 15.4zm-8.35-14.23a5.25 5.25 0 1 0 7.18 1.87 5.26 5.26 0 0 0-7.18-1.87zm179.55-240.33a2.86 2.86 0 0 1-3.47-.45l-16.69-16.73a2.86 2.86 0 0 1 4.05-4l16.68 16.73a2.86 2.86 0 0 1-.58 4.49zm-170.01 67.55a2.86 2.86 0 0 1-1.83-3L138 156a2.86 2.86 0 0 1 5.69.61l-2.53 23.49a2.86 2.86 0 0 1-3.86 2.37zm496.42 18.95a2.86 2.86 0 0 1-1.83-3l2.53-23.49a2.86 2.86 0 0 1 5.69.61L637.55 199a2.86 2.86 0 0 1-3.86 2.37z"/></svg>
