<svg width="114" height="35" viewBox="0 0 114 35" xmlns="http://www.w3.org/2000/svg"><title>Logos/Combination Mark Full Color</title><g fill="none" fill-rule="evenodd"><path d="M93.484 14.543c.094-.036.19-.069.285-.096l.05-.013a3.46 3.46 0 0 1 .246-.058 3.36 3.36 0 0 1 .19-.03l.108-.014a3.36 3.36 0 0 1 .327-.017l.071-.001c.41.007.817.088 1.208.245.407.163.602.29.866.472.325.224.728.26 1.016-.064.512-.563.883-.868 1.067-1.263l.004-.013a.45.45 0 0 0-.11-.537 6.046 6.046 0 0 0-.313-.3 2.47 2.47 0 0 0-.245-.203 6.056 6.056 0 0 0-4.439-1.043l-.076.011-.101.018a6.138 6.138 0 0 0-5.074 6.039 6.14 6.14 0 0 0 4.438 5.892l.003.006c1.865.536 3.78.181 5.249-.868a2.47 2.47 0 0 0 .245-.203c.069-.06.177-.16.313-.3a.452.452 0 0 0 .11-.536.04.04 0 0 0-.004-.013c-.184-.396-.555-.7-1.067-1.263-.288-.325-.691-.288-1.016-.065a3.81 3.81 0 0 1-.866.473 3.356 3.356 0 0 1-2.5.01c-.011-.004-.022-.005-.033-.008a3.363 3.363 0 0 1 .048-6.258m-41.984 0c.094-.036.19-.069.285-.096l.05-.013a3.127 3.127 0 0 1 .436-.088l.108-.014c.108-.01.217-.017.327-.017l.071-.001c.41.007.817.088 1.208.245.407.163.602.29.866.472.324.224.728.26 1.016-.064.512-.563.883-.868 1.067-1.263l.004-.013a.45.45 0 0 0-.11-.537 6.087 6.087 0 0 0-.313-.3 2.47 2.47 0 0 0-.245-.203 6.056 6.056 0 0 0-4.439-1.043l-.076.011-.101.018a6.138 6.138 0 0 0-5.074 6.039 6.14 6.14 0 0 0 4.438 5.892l.003.006c1.865.536 3.78.181 5.249-.868a2.47 2.47 0 0 0 .245-.203c.069-.06.177-.16.313-.3a.452.452 0 0 0 .11-.536.04.04 0 0 0-.004-.013c-.184-.396-.555-.7-1.067-1.263-.288-.325-.692-.288-1.016-.065a3.813 3.813 0 0 1-.866.473 3.356 3.356 0 0 1-2.5.01c-.011-.004-.022-.005-.032-.008a3.363 3.363 0 0 1 .048-6.258m28.038 6.494a3.363 3.363 0 0 1-3.358-3.361 3.363 3.363 0 0 1 3.358-3.361 3.363 3.363 0 0 1 3.358 3.36 3.363 3.363 0 0 1-3.358 3.362m7.559.64a3.403 3.403 0 0 1-.7-.65 1.386 1.386 0 0 0-.107-.18 3.321 3.321 0 0 1-.611-1.915l.005-.258-.024-.885c.001-.037.004-.076.004-.113 0-3.38-2.748-6.131-6.126-6.131s-6.126 2.75-6.126 6.13c0 3.382 2.748 6.132 6.126 6.132a6.098 6.098 0 0 0 4.142-1.62c.032-.025.063-.055.094-.083.321.524.717.998 1.177 1.403.271.24.676.25.961.027l1.201-.944a.57.57 0 0 0-.016-.913m26.812.013v-3.384c0-3.38-2.748-6.131-6.126-6.131a6.08 6.08 0 0 0-3.357 1.007v-1.66h.003V9.886l.002-.023a.533.533 0 0 0-.529-.533h-1.712a.532.532 0 0 0-.525.519h-.002v.806a1.37 1.37 0 0 0-.005.108v11.354c0 .05.003.098.008.146V23.3c0 .008-.003.015-.003.023 0 .293.237.53.53.533h1.711a.532.532 0 0 0 .526-.519h.001V21.69h-.005v-3.385a3.363 3.363 0 0 1 3.357-3.36 3.363 3.363 0 0 1 3.358 3.36v4.08l.003.048v.867l-.002.023c0 .293.236.53.528.533h1.713a.532.532 0 0 0 .525-.519h.001V21.69zm-45.284-4.014a3.363 3.363 0 0 1-3.358 3.36 3.363 3.363 0 0 1-3.358-3.36 3.363 3.363 0 0 1 3.358-3.36 3.363 3.363 0 0 1 3.358 3.36m-9.452-.028a6.1 6.1 0 0 0 6.098 6.103 6.1 6.1 0 0 0 6.098-6.103 6.098 6.098 0 0 0-5.99-6.1c-.036 0-.071-.003-.108-.003a6.1 6.1 0 0 0-6.098 6.103" fill="#9A989D"/><path d="M16.865 19.733c.032.01.066.023.101.037a2.411 2.411 0 0 0 1.827-.008c.374-.15.5-.237.777-.427 1.515-1.046 3.394-.856 4.573.458.182.2.353.378.519.55.534.554 1.039 1.078 1.396 1.84.022.047.042.094.06.14a3 3 0 0 1 .239 1.175c0 .832-.344 1.627-.948 2.2-.212.215-.386.376-.504.48a5.926 5.926 0 0 1-.57.468 10.963 10.963 0 0 1-6.393 2.043 11.42 11.42 0 0 1-3.164-.45l-.935-.268-.038-.068a11.279 11.279 0 0 1-4.818-3.627A11.058 11.058 0 0 1 6.693 17.5a11.18 11.18 0 0 1 9.23-10.995l.03-.005a8.4 8.4 0 0 1 .148-.026l.016-.003.117-.017.017-.002c2.882-.433 5.752.246 8.084 1.912.188.134.385.295.57.467.117.104.292.266.504.481.604.572.948 1.368.948 2.2a3 3 0 0 1-.238 1.173c-.019.048-.04.094-.061.14-.357.764-.862 1.288-1.397 1.843-.165.171-.336.35-.518.549-1.179 1.314-3.058 1.503-4.574.458a3.146 3.146 0 0 0-.776-.427 2.475 2.475 0 0 0-.845-.18c-.1.003-.196.002-.31.012l-.01.001-.082.012-.014.002c-.026.004-.093.012-.131.02a2.92 2.92 0 0 0-.173.04l-.008.003-.057.015a2.448 2.448 0 0 0-1.744 2.328c0 .954.578 1.84 1.446 2.231m16.89-11.88a9.312 9.312 0 0 0-6.632-6.638C24.139.431 20.887 0 17.485 0c-3.358 0-6.568.42-9.52 1.184a9.443 9.443 0 0 0-6.782 6.788C.42 10.926 0 14.14 0 17.5c0 3.406.43 6.66 1.214 9.646a9.312 9.312 0 0 0 6.633 6.639C10.83 34.569 14.082 35 17.485 35c3.402 0 6.654-.431 9.638-1.215a9.312 9.312 0 0 0 6.632-6.639c.784-2.986 1.214-6.24 1.214-9.646 0-3.405-.43-6.66-1.214-9.646" fill="#2B9CF2"/></g></svg>